<svg width="40" height="40" viewBox="0 0 40 40" fill="none" xmlns="http://www.w3.org/2000/svg">
    <rect width="40" height="40" rx="8" fill="white"/>
    <path d="M24.7364 15.2636C25.0879 15.6151 25.0879 16.1849 24.7364 16.5364L21.273 20L24.7364 23.4636C25.0586 23.7858 25.0854 24.2915 24.817 24.6442L24.7364 24.7364C24.3849 25.0879 23.8151 25.0879 23.4636 24.7364L20 21.273L16.5364 24.7364C16.1849 25.0879 15.6151 25.0879 15.2636 24.7364C14.9121 24.3849 14.9121 23.8151 15.2636 23.4636L18.727 20L15.2636 16.5364C14.9414 16.2142 14.9146 15.7085 15.1831 15.3558L15.2636 15.2636C15.6151 14.9121 16.1849 14.9121 16.5364 15.2636L20 18.727L23.4636 15.2636C23.8151 14.9121 24.3849 14.9121 24.7364 15.2636Z" fill="black"/>
</svg>